<?xml version="1.0" standalone="no"?>
<!DOCTYPE svg PUBLIC "-//W3C//DTD SVG 20010904//EN"
 "http://www.w3.org/TR/2001/REC-SVG-20010904/DTD/svg10.dtd">
<svg version="1.0" xmlns="http://www.w3.org/2000/svg"
 width="409.000000pt" height="101.000000pt" viewBox="0 0 409.000000 101.000000"
 preserveAspectRatio="xMidYMid meet">
<metadata>
Created by potrace 1.16, written by Peter Selinger 2001-2019
</metadata>
<g transform="translate(0.000000,101.000000) scale(0.100000,-0.100000)"
fill="#000000" stroke="none">
<path d="M780 785 c-22 -22 -36 -31 -41 -24 -4 6 -10 -53 -13 -132 -4 -79 -10
-157 -13 -173 l-5 -28 -62 61 -61 61 -127 -128 c-131 -131 -162 -163 -117
-124 14 12 29 22 33 22 4 0 6 -32 5 -70 -1 -39 2 -75 8 -81 7 -7 68 -5 187 5
97 9 199 16 226 16 27 0 52 5 56 11 3 6 -17 34 -45 63 -28 28 -51 58 -51 65 0
8 61 73 135 146 74 73 135 137 135 141 0 13 -193 204 -206 204 -5 0 -25 -16
-44 -35z"/>
</g>
</svg>
